<svg id="svg" version="1.1" xmlns="http://www.w3.org/2000/svg" xmlns:xlink="http://www.w3.org/1999/xlink" width="400" height="400" viewBox="0, 0, 400,400"><g id="svgg"><path id="path0" d="M158.300 61.466 C 157.475 61.566,156.800 61.817,156.800 62.024 C 156.800 62.231,156.497 62.400,156.126 62.400 C 155.234 62.400,152.192 63.887,151.583 64.620 C 151.319 64.939,150.892 65.200,150.634 65.200 C 150.121 65.200,146.800 68.441,146.800 68.942 C 146.800 69.113,146.377 69.826,145.860 70.527 C 144.716 72.077,143.600 74.871,143.600 76.184 C 143.600 76.717,143.420 77.264,143.200 77.400 C 142.939 77.561,142.800 88.137,142.800 107.824 L 142.800 138.000 115.600 138.000 C 97.733 138.000,88.400 137.863,88.400 137.600 C 88.400 137.336,73.400 137.200,44.200 137.200 L 0.000 137.200 0.000 147.600 L 0.000 158.000 81.200 158.000 L 162.400 158.000 162.400 120.233 C 162.400 99.461,162.516 82.162,162.659 81.792 C 162.919 81.113,281.600 199.262,281.600 200.200 C 281.600 200.832,162.999 319.266,162.683 318.950 C 162.527 318.794,162.400 301.597,162.400 280.733 L 162.400 242.800 81.200 242.800 L 0.000 242.800 0.000 253.200 L 0.000 263.600 44.029 263.600 C 82.723 263.600,88.130 263.527,88.660 262.997 C 89.187 262.470,92.611 262.407,115.931 262.497 L 142.600 262.600 142.810 292.800 C 142.988 318.456,143.114 323.331,143.642 325.200 C 145.168 330.599,148.981 335.250,153.500 337.227 C 154.215 337.539,154.800 337.918,154.800 338.069 C 154.800 338.219,155.792 338.466,157.005 338.618 C 158.218 338.770,159.309 339.052,159.429 339.247 C 159.782 339.818,165.321 339.652,168.068 338.988 C 173.927 337.572,169.884 341.370,237.015 274.226 C 302.443 208.787,300.742 210.578,301.433 206.400 C 301.561 205.630,301.844 204.626,302.064 204.168 C 303.393 201.395,301.636 192.835,298.869 188.600 C 297.125 185.931,176.912 65.901,174.351 64.272 C 173.114 63.485,171.584 62.717,170.951 62.565 C 170.318 62.414,169.573 62.111,169.295 61.892 C 168.757 61.468,160.811 61.160,158.300 61.466 " stroke="none" fill="#fafafa" fill-rule="evenodd"></path><path id="path1" d="M202.162 0.738 C 202.277 0.925,198.621 1.201,194.036 1.352 C 189.452 1.503,185.095 1.801,184.353 2.013 C 183.612 2.226,181.699 2.400,180.103 2.400 C 178.506 2.400,177.200 2.553,177.200 2.740 C 177.200 2.927,174.853 3.204,171.985 3.356 C 169.117 3.507,166.316 3.804,165.759 4.015 C 165.203 4.227,163.800 4.400,162.641 4.400 C 161.482 4.400,160.399 4.535,160.236 4.700 C 159.973 4.964,155.840 5.550,149.299 6.249 C 148.144 6.373,147.283 6.611,147.387 6.779 C 147.491 6.947,146.035 7.202,144.152 7.347 C 142.269 7.492,140.396 7.788,139.990 8.005 C 139.585 8.222,138.701 8.400,138.026 8.400 C 137.352 8.400,136.800 8.554,136.800 8.743 C 136.800 8.931,135.503 9.206,133.917 9.353 C 132.332 9.500,130.937 9.755,130.817 9.919 C 130.698 10.083,129.970 10.276,129.200 10.348 C 128.430 10.420,127.620 10.596,127.400 10.740 C 127.180 10.883,126.010 11.214,124.800 11.475 C 121.023 12.290,120.206 12.511,120.000 12.774 C 119.823 13.000,117.570 13.588,114.300 14.264 C 113.695 14.389,113.200 14.650,113.200 14.845 C 113.200 15.040,112.844 15.200,112.408 15.200 C 111.633 15.200,109.451 15.936,106.940 17.044 C 106.246 17.350,105.481 17.600,105.240 17.600 C 104.998 17.600,104.800 17.780,104.800 18.000 C 104.800 18.220,104.440 18.400,104.000 18.400 C 103.560 18.400,103.200 18.560,103.200 18.755 C 103.200 18.951,102.602 19.223,101.870 19.360 C 101.139 19.498,100.156 19.968,99.687 20.405 C 99.217 20.842,98.649 21.200,98.423 21.200 C 97.726 21.200,94.234 23.506,93.612 24.376 C 93.288 24.829,92.789 25.200,92.503 25.200 C 92.217 25.200,91.779 25.647,91.531 26.192 C 91.282 26.738,90.755 27.287,90.360 27.413 C 89.964 27.538,89.530 27.992,89.394 28.420 C 89.257 28.849,88.978 29.200,88.773 29.200 C 88.544 29.200,88.400 50.144,88.400 83.400 L 88.400 137.600 115.400 137.600 L 142.400 137.600 142.400 107.400 C 142.400 90.790,142.555 77.200,142.744 77.200 C 142.934 77.200,143.194 76.345,143.323 75.300 C 143.567 73.323,144.381 71.209,144.900 71.203 C 145.065 71.201,145.200 70.834,145.200 70.387 C 145.200 69.941,145.470 69.471,145.800 69.345 C 146.130 69.218,146.400 68.902,146.400 68.642 C 146.400 68.048,150.073 64.400,150.671 64.400 C 150.915 64.400,151.218 64.130,151.345 63.800 C 151.471 63.470,151.941 63.200,152.387 63.200 C 152.834 63.200,153.201 63.065,153.203 62.900 C 153.209 62.381,155.323 61.567,157.300 61.323 C 158.345 61.194,159.200 60.922,159.200 60.718 C 159.200 60.163,166.650 60.571,169.200 61.265 C 171.118 61.787,172.790 62.557,175.646 64.233 C 176.779 64.897,298.800 187.021,298.800 187.490 C 298.800 187.717,299.061 188.119,299.380 188.383 C 300.081 188.965,301.600 192.019,301.600 192.846 C 301.600 193.173,301.825 193.665,302.100 193.940 C 302.757 194.596,302.797 205.459,302.148 206.839 C 301.899 207.367,301.367 208.610,300.964 209.600 C 300.562 210.590,299.865 211.890,299.416 212.488 C 298.258 214.031,177.738 334.626,175.800 336.180 C 174.073 337.566,171.653 338.800,170.663 338.800 C 170.324 338.800,169.936 338.980,169.800 339.200 C 169.664 339.420,169.034 339.600,168.400 339.600 C 167.766 339.600,167.136 339.780,167.000 340.000 C 166.673 340.529,159.200 340.529,159.200 340.000 C 159.200 339.780,158.570 339.600,157.800 339.600 C 157.030 339.600,156.400 339.443,156.400 339.251 C 156.400 339.059,155.680 338.787,154.800 338.646 C 153.920 338.506,153.200 338.234,153.200 338.042 C 153.200 337.850,152.885 337.579,152.500 337.440 C 150.159 336.594,146.483 332.987,145.327 330.400 C 145.179 330.070,144.955 329.710,144.829 329.600 C 144.166 329.021,143.529 327.318,143.322 325.569 C 143.194 324.486,142.934 323.600,142.744 323.600 C 142.555 323.600,142.400 309.919,142.400 293.197 L 142.400 262.794 115.500 262.897 L 88.600 263.000 88.499 316.900 C 88.436 350.191,88.540 370.800,88.772 370.800 C 88.978 370.800,89.257 371.151,89.394 371.580 C 89.530 372.008,89.964 372.462,90.360 372.587 C 90.755 372.713,91.282 373.262,91.531 373.808 C 91.779 374.353,92.217 374.800,92.503 374.800 C 92.789 374.800,93.288 375.169,93.612 375.620 C 94.363 376.668,97.664 378.800,98.535 378.800 C 98.901 378.800,99.200 378.941,99.200 379.114 C 99.200 379.608,101.435 380.800,102.362 380.800 C 102.823 380.800,103.200 380.980,103.200 381.200 C 103.200 381.420,103.560 381.600,104.000 381.600 C 104.440 381.600,104.800 381.780,104.800 382.000 C 104.800 382.220,104.998 382.400,105.240 382.400 C 105.666 382.400,107.895 383.297,109.283 384.026 C 109.658 384.223,110.693 384.501,111.583 384.644 C 112.472 384.786,113.200 385.059,113.200 385.251 C 113.200 385.443,113.614 385.600,114.120 385.600 C 114.626 385.600,115.225 385.785,115.451 386.011 C 115.676 386.236,116.792 386.532,117.931 386.666 C 119.069 386.801,120.000 387.066,120.000 387.256 C 120.000 387.445,120.439 387.600,120.976 387.600 C 121.513 387.600,122.056 387.767,122.183 387.972 C 122.309 388.177,123.445 388.469,124.706 388.621 C 125.968 388.774,127.180 389.039,127.400 389.211 C 127.620 389.383,128.430 389.582,129.200 389.653 C 129.970 389.724,130.698 389.917,130.817 390.081 C 130.937 390.245,132.326 390.499,133.906 390.646 C 135.485 390.793,136.682 391.067,136.565 391.256 C 136.448 391.445,137.047 391.600,137.896 391.600 C 138.745 391.600,139.611 391.770,139.820 391.979 C 140.029 392.187,141.860 392.482,143.889 392.635 C 145.917 392.788,147.482 393.068,147.365 393.257 C 147.248 393.445,148.053 393.600,149.153 393.600 C 150.253 393.600,151.253 393.763,151.376 393.961 C 151.499 394.160,153.492 394.452,155.806 394.610 C 158.119 394.767,160.110 395.055,160.230 395.248 C 160.349 395.442,161.438 395.600,162.650 395.600 C 163.861 395.600,165.167 395.768,165.552 395.974 C 165.936 396.180,168.715 396.476,171.726 396.632 C 174.737 396.789,177.200 397.070,177.200 397.258 C 177.200 397.446,178.538 397.600,180.174 397.600 C 181.810 397.600,183.597 397.771,184.146 397.979 C 184.694 398.188,189.020 398.485,193.758 398.640 C 198.496 398.795,202.278 399.074,202.163 399.261 C 202.047 399.447,221.054 399.600,244.400 399.600 C 267.746 399.600,286.753 399.447,286.637 399.261 C 286.522 399.074,290.322 398.794,295.081 398.639 C 299.841 398.483,304.052 398.186,304.441 397.978 C 304.830 397.770,306.512 397.600,308.179 397.600 C 309.847 397.600,311.523 397.433,311.905 397.228 C 312.287 397.023,315.030 396.660,318.000 396.420 C 326.556 395.730,328.174 395.545,328.600 395.206 C 328.820 395.031,330.846 394.759,333.103 394.601 C 335.360 394.443,337.306 394.153,337.427 393.957 C 337.548 393.760,338.547 393.600,339.647 393.600 C 340.747 393.600,341.552 393.446,341.436 393.258 C 341.320 393.070,342.789 392.796,344.701 392.649 C 346.614 392.502,348.354 392.206,348.569 391.991 C 348.784 391.776,349.644 391.600,350.480 391.600 C 351.316 391.600,352.000 391.446,352.000 391.257 C 352.000 391.069,353.297 390.794,354.883 390.647 C 356.468 390.500,357.863 390.245,357.983 390.081 C 358.102 389.917,358.830 389.724,359.600 389.653 C 360.370 389.582,361.180 389.378,361.400 389.200 C 361.620 389.023,362.837 388.749,364.105 388.592 C 365.373 388.435,366.509 388.148,366.629 387.953 C 366.749 387.759,367.287 387.600,367.824 387.600 C 368.361 387.600,368.800 387.441,368.800 387.246 C 368.800 387.051,369.787 386.769,370.994 386.618 C 372.200 386.467,373.291 386.177,373.417 385.972 C 373.544 385.767,374.097 385.600,374.647 385.600 C 375.212 385.600,375.540 385.426,375.400 385.200 C 375.260 384.973,375.593 384.800,376.168 384.800 C 377.205 384.800,380.439 383.673,380.800 383.185 C 380.910 383.037,381.675 382.791,382.500 382.640 C 383.325 382.488,384.000 382.192,384.000 381.982 C 384.000 381.772,384.272 381.600,384.605 381.600 C 384.938 381.600,385.523 381.420,385.905 381.200 C 386.287 380.980,387.050 380.623,387.600 380.405 C 391.615 378.818,395.531 375.851,399.170 371.639 L 400.000 370.678 400.000 200.000 L 400.000 29.322 399.170 28.361 C 397.275 26.168,396.042 24.935,394.608 23.800 C 393.280 22.749,392.368 22.186,388.600 20.086 C 386.420 18.872,382.390 17.200,381.643 17.200 C 381.179 17.200,380.800 17.020,380.800 16.800 C 380.800 16.580,380.451 16.400,380.024 16.400 C 379.597 16.400,379.142 16.230,379.014 16.023 C 378.886 15.816,377.977 15.526,376.995 15.378 C 376.012 15.231,375.294 14.971,375.400 14.800 C 375.506 14.629,375.099 14.388,374.496 14.263 C 371.221 13.586,368.977 12.999,368.800 12.774 C 368.600 12.520,368.137 12.392,364.000 11.448 C 362.790 11.172,361.530 10.837,361.200 10.703 C 360.870 10.569,360.060 10.371,359.400 10.263 C 358.740 10.154,357.480 9.875,356.600 9.642 C 355.720 9.410,354.325 9.215,353.500 9.210 C 352.675 9.204,352.000 9.020,352.000 8.800 C 352.000 8.580,351.316 8.400,350.480 8.400 C 349.644 8.400,348.784 8.224,348.569 8.009 C 348.354 7.794,346.608 7.498,344.689 7.350 C 342.770 7.203,341.200 6.946,341.200 6.780 C 341.200 6.613,340.345 6.374,339.300 6.249 C 338.255 6.123,335.479 5.790,333.131 5.510 C 330.783 5.229,328.728 4.865,328.564 4.700 C 328.401 4.535,327.318 4.400,326.159 4.400 C 325.000 4.400,323.610 4.232,323.070 4.027 C 322.530 3.821,319.863 3.528,317.144 3.375 C 314.425 3.222,312.020 2.958,311.800 2.788 C 311.347 2.439,305.524 1.974,300.300 1.870 C 298.375 1.831,296.800 1.665,296.800 1.500 C 296.800 1.335,294.460 1.200,291.600 1.200 C 288.400 1.200,286.400 1.046,286.400 0.800 C 286.400 0.536,272.059 0.400,244.176 0.400 C 220.953 0.400,202.047 0.552,202.162 0.738 " stroke="none" fill="#34a434" fill-rule="evenodd"></path><path id="path2" d="M162.800 119.900 L 162.800 158.000 81.400 158.000 L 0.000 158.000 0.000 200.199 L 0.000 242.398 81.300 242.499 L 162.600 242.600 162.800 280.701 L 163.000 318.801 222.200 259.600 L 281.399 200.400 222.100 141.100 L 162.800 81.800 162.800 119.900 " stroke="none" fill="#fc0404" fill-rule="evenodd"></path><path id="path3" d="M162.659 81.792 C 162.516 82.162,162.444 99.506,162.497 120.333 L 162.594 158.200 162.797 120.099 L 163.000 81.999 222.199 141.199 L 281.399 200.400 222.199 259.601 L 163.000 318.801 162.800 280.701 L 162.600 242.600 81.300 242.599 L -0.000 242.597 81.200 242.700 L 162.400 242.802 162.400 280.734 C 162.400 301.597,162.527 318.794,162.683 318.950 C 162.999 319.266,281.600 200.832,281.600 200.200 C 281.600 199.262,162.919 81.113,162.659 81.792 " stroke="none" fill="#fc7c7c" fill-rule="evenodd"></path><path id="path4" d="M159.200 60.718 C 159.200 60.922,158.345 61.194,157.300 61.323 C 155.323 61.567,153.209 62.381,153.203 62.900 C 153.201 63.065,152.834 63.200,152.387 63.200 C 151.941 63.200,151.471 63.470,151.345 63.800 C 151.218 64.130,150.902 64.400,150.642 64.400 C 150.048 64.400,146.400 68.073,146.400 68.671 C 146.400 68.915,146.130 69.218,145.800 69.345 C 145.470 69.471,145.200 69.941,145.200 70.387 C 145.200 70.834,145.065 71.201,144.900 71.203 C 144.381 71.209,143.567 73.323,143.323 75.300 C 143.194 76.345,142.934 77.200,142.744 77.200 C 142.555 77.200,142.400 90.789,142.400 107.397 L 142.400 137.594 115.300 137.700 L 88.200 137.806 115.500 137.903 L 142.800 138.000 142.800 107.824 C 142.800 88.137,142.939 77.561,143.200 77.400 C 143.420 77.264,143.600 76.717,143.600 76.184 C 143.600 74.871,144.716 72.077,145.860 70.527 C 146.377 69.826,146.800 69.099,146.800 68.910 C 146.800 68.414,150.149 65.200,150.666 65.200 C 150.906 65.200,151.319 64.939,151.583 64.620 C 152.181 63.900,155.228 62.400,156.093 62.400 C 156.445 62.400,156.808 62.175,156.900 61.900 C 157.121 61.238,168.408 61.187,169.238 61.845 C 169.547 62.090,170.318 62.414,170.951 62.565 C 171.584 62.717,173.114 63.485,174.351 64.272 C 176.912 65.901,297.125 185.931,298.869 188.600 C 301.636 192.835,303.393 201.395,302.064 204.168 C 301.844 204.626,301.561 205.630,301.433 206.400 C 300.742 210.578,302.443 208.787,237.015 274.226 C 169.884 341.370,173.927 337.572,168.068 338.988 C 165.321 339.652,159.782 339.818,159.429 339.247 C 159.309 339.052,158.218 338.770,157.005 338.618 C 155.792 338.466,154.800 338.219,154.800 338.069 C 154.800 337.918,154.215 337.539,153.500 337.227 C 148.981 335.250,145.168 330.599,143.642 325.200 C 143.114 323.331,142.988 318.456,142.810 292.800 L 142.600 262.600 116.000 262.596 L 89.400 262.591 115.900 262.699 L 142.400 262.806 142.400 293.203 C 142.400 309.921,142.555 323.600,142.744 323.600 C 142.934 323.600,143.194 324.486,143.322 325.569 C 143.524 327.278,144.130 328.930,144.800 329.600 C 145.094 329.894,145.964 331.309,146.276 332.000 C 146.968 333.537,150.683 336.783,152.500 337.440 C 152.885 337.579,153.200 337.850,153.200 338.042 C 153.200 338.234,153.920 338.506,154.800 338.646 C 155.680 338.787,156.400 339.059,156.400 339.251 C 156.400 339.443,157.030 339.600,157.800 339.600 C 158.570 339.600,159.200 339.780,159.200 340.000 C 159.200 340.238,160.725 340.400,162.976 340.400 C 165.063 340.400,166.863 340.221,167.000 340.000 C 167.136 339.780,167.766 339.600,168.400 339.600 C 169.034 339.600,169.664 339.420,169.800 339.200 C 169.936 338.980,170.324 338.800,170.663 338.800 C 171.653 338.800,174.073 337.566,175.800 336.180 C 177.738 334.626,298.258 214.031,299.416 212.488 C 299.865 211.890,300.562 210.590,300.964 209.600 C 301.367 208.610,301.899 207.367,302.148 206.839 C 302.797 205.459,302.757 194.596,302.100 193.940 C 301.825 193.665,301.600 193.173,301.600 192.846 C 301.600 192.019,300.081 188.965,299.380 188.383 C 299.061 188.119,298.800 187.717,298.800 187.490 C 298.800 187.021,176.779 64.897,175.646 64.233 C 172.790 62.557,171.118 61.787,169.200 61.265 C 166.650 60.571,159.200 60.163,159.200 60.718 " stroke="none" fill="#4ca44c" fill-rule="evenodd"></path></g></svg>